<svg xmlns="http://www.w3.org/2000/svg" width="40" height="40" fill="none"><g filter="url(#a)"><rect width="40" height="40" fill="#000" rx="12"/><rect width="39.5" height="39.5" x=".25" y=".25" stroke="#fff" stroke-opacity=".12" stroke-width=".5" rx="11.75"/><g clip-path="url(#b)"><path fill="#fff" d="M9.5 12.323q0-1.01.71-1.666.708-.657 1.844-.657 1.115 0 1.804.646.71.667.71 1.738 0 .97-.69 1.616-.71.666-1.864.667h-.02q-1.116 0-1.805-.667-.69-.666-.689-1.677M9.764 30V16.505h4.5V30zm6.993 0h4.5v-7.535q0-.707.162-1.091.284-.687.861-1.162.579-.474 1.45-.475 2.27 0 2.27 3.05V30h4.5v-7.737q0-2.99-1.419-4.536t-3.75-1.545q-2.614 0-4.074 2.242v.04h-.02l.02-.04v-1.919h-4.5q.04.646.04 4.02 0 3.375-.04 9.475"/></g></g><defs><clipPath id="b"><path fill="#fff" d="M9.5 10h21v20h-21z"/></clipPath><filter id="a" width="44" height="44" x="0" y="0" color-interpolation-filters="sRGB" filterUnits="userSpaceOnUse"><feFlood flood-opacity="0" result="BackgroundImageFix"/><feBlend in="SourceGraphic" in2="BackgroundImageFix" result="shape"/><feColorMatrix in="SourceAlpha" result="hardAlpha" values="0 0 0 0 0 0 0 0 0 0 0 0 0 0 0 0 0 0 127 0"/><feOffset dx="4" dy="4"/><feGaussianBlur stdDeviation="5.5"/><feComposite in2="hardAlpha" k2="-1" k3="1" operator="arithmetic"/><feColorMatrix values="0 0 0 0 1 0 0 0 0 1 0 0 0 0 1 0 0 0 0.16 0"/><feBlend in2="shape" result="effect1_innerShadow_1886_146"/></filter></defs></svg>